<mxfile host="65bd71144e">
    <diagram id="XlUuljvEqb5gEuXa-Nq-" name="Page-1">
        <mxGraphModel dx="1570" dy="1134" grid="1" gridSize="10" guides="1" tooltips="1" connect="1" arrows="1" fold="1" page="1" pageScale="1" pageWidth="850" pageHeight="1100" math="0" shadow="0">
            <root>
                <mxCell id="0"/>
                <mxCell id="1" parent="0"/>
                <mxCell id="CllLjQD8V5zYTx3tP-4R-1" value="PSEUDOCODE&lt;br&gt;&lt;br&gt;&lt;div style=&quot;text-align: left&quot;&gt;&lt;span&gt;WHILE text != STRING THEN&lt;/span&gt;&lt;/div&gt;&lt;div style=&quot;text-align: left&quot;&gt;&lt;span&gt;&lt;span style=&quot;white-space: pre&quot;&gt;&#9;&lt;/span&gt;READ text&lt;/span&gt;&lt;/div&gt;&lt;div style=&quot;text-align: left&quot;&gt;&lt;span&gt;END WHILE&lt;/span&gt;&lt;/div&gt;&lt;div style=&quot;text-align: left&quot;&gt;&lt;span&gt;X = text length -1&lt;/span&gt;&lt;/div&gt;&lt;div style=&quot;text-align: left&quot;&gt;&lt;br&gt;&lt;/div&gt;&lt;div style=&quot;text-align: left&quot;&gt;&lt;span&gt;WHILE X &amp;gt;=0 THEN&lt;/span&gt;&lt;/div&gt;&lt;div style=&quot;text-align: left&quot;&gt;&lt;span&gt;&lt;span style=&quot;white-space: pre&quot;&gt;&#9;&lt;/span&gt;Y = Y - text[x]&lt;/span&gt;&lt;/div&gt;&lt;div style=&quot;text-align: left&quot;&gt;&lt;span&gt;&lt;span style=&quot;white-space: pre&quot;&gt;&#9;&lt;/span&gt;X= X-1&lt;/span&gt;&lt;/div&gt;&lt;div style=&quot;text-align: left&quot;&gt;&lt;span&gt;ENDIF&lt;/span&gt;&lt;/div&gt;&lt;div style=&quot;text-align: left&quot;&gt;&lt;span&gt;IF text == Y THEN&lt;/span&gt;&lt;/div&gt;&lt;div style=&quot;text-align: left&quot;&gt;&lt;span&gt;&lt;span style=&quot;white-space: pre&quot;&gt;&#9;&lt;/span&gt;PRINT &quot;Palindrome&quot;&lt;/span&gt;&lt;/div&gt;&lt;div style=&quot;text-align: left&quot;&gt;&lt;span&gt;ELSE&lt;/span&gt;&lt;/div&gt;&lt;div style=&quot;text-align: left&quot;&gt;&lt;span&gt;&lt;span style=&quot;white-space: pre&quot;&gt;&#9;&lt;/span&gt;PRINT &quot;Bukan Palindrome&quot;&lt;/span&gt;&lt;/div&gt;&lt;div style=&quot;text-align: left&quot;&gt;&lt;span&gt;ENDIF&lt;/span&gt;&lt;/div&gt;" style="text;html=1;strokeColor=none;fillColor=none;align=center;verticalAlign=middle;whiteSpace=wrap;rounded=0;fontSize=19;" parent="1" vertex="1">
                    <mxGeometry x="260" y="200" width="400" height="380" as="geometry"/>
                </mxCell>
                <mxCell id="CllLjQD8V5zYTx3tP-4R-2" value="FLOWCHART" style="text;html=1;strokeColor=none;fillColor=none;align=center;verticalAlign=middle;whiteSpace=wrap;rounded=0;fontSize=19;" parent="1" vertex="1">
                    <mxGeometry x="730" y="200" width="200" height="40" as="geometry"/>
                </mxCell>
                <mxCell id="CllLjQD8V5zYTx3tP-4R-3" value="" style="edgeStyle=orthogonalEdgeStyle;rounded=0;orthogonalLoop=1;jettySize=auto;html=1;fontSize=19;" parent="1" source="CllLjQD8V5zYTx3tP-4R-4" target="CllLjQD8V5zYTx3tP-4R-6" edge="1">
                    <mxGeometry relative="1" as="geometry"/>
                </mxCell>
                <mxCell id="CllLjQD8V5zYTx3tP-4R-4" value="&lt;font style=&quot;font-size: 14px&quot;&gt;START&lt;/font&gt;" style="ellipse;whiteSpace=wrap;html=1;fontSize=19;" parent="1" vertex="1">
                    <mxGeometry x="770" y="250" width="120" height="80" as="geometry"/>
                </mxCell>
                <mxCell id="CllLjQD8V5zYTx3tP-4R-5" value="" style="edgeStyle=orthogonalEdgeStyle;rounded=0;orthogonalLoop=1;jettySize=auto;html=1;fontSize=19;" parent="1" source="CllLjQD8V5zYTx3tP-4R-6" target="CllLjQD8V5zYTx3tP-4R-9" edge="1">
                    <mxGeometry relative="1" as="geometry"/>
                </mxCell>
                <mxCell id="CllLjQD8V5zYTx3tP-4R-6" value="&lt;font style=&quot;font-size: 14px&quot;&gt;INPUT&lt;br&gt;TEXT&lt;/font&gt;" style="shape=parallelogram;perimeter=parallelogramPerimeter;whiteSpace=wrap;html=1;fixedSize=1;fontSize=19;" parent="1" vertex="1">
                    <mxGeometry x="770" y="370" width="120" height="60" as="geometry"/>
                </mxCell>
                <mxCell id="CllLjQD8V5zYTx3tP-4R-7" value="" style="edgeStyle=orthogonalEdgeStyle;rounded=0;orthogonalLoop=1;jettySize=auto;html=1;fontSize=19;" parent="1" source="CllLjQD8V5zYTx3tP-4R-9" target="CllLjQD8V5zYTx3tP-4R-11" edge="1">
                    <mxGeometry relative="1" as="geometry"/>
                </mxCell>
                <mxCell id="CllLjQD8V5zYTx3tP-4R-8" value="&lt;font style=&quot;font-size: 14px&quot;&gt;FALSE&lt;/font&gt;" style="edgeStyle=orthogonalEdgeStyle;rounded=0;orthogonalLoop=1;jettySize=auto;html=1;exitX=1;exitY=0.5;exitDx=0;exitDy=0;fontSize=19;entryX=1;entryY=0.5;entryDx=0;entryDy=0;" parent="1" source="CllLjQD8V5zYTx3tP-4R-9" target="CllLjQD8V5zYTx3tP-4R-6" edge="1">
                    <mxGeometry relative="1" as="geometry">
                        <mxPoint x="950" y="400" as="targetPoint"/>
                        <Array as="points">
                            <mxPoint x="990" y="525"/>
                            <mxPoint x="990" y="400"/>
                        </Array>
                    </mxGeometry>
                </mxCell>
                <mxCell id="CllLjQD8V5zYTx3tP-4R-9" value="&lt;font style=&quot;font-size: 14px&quot;&gt;TEXT == STRING&lt;/font&gt;" style="rhombus;whiteSpace=wrap;html=1;fontSize=19;" parent="1" vertex="1">
                    <mxGeometry x="755" y="460" width="150" height="130" as="geometry"/>
                </mxCell>
                <mxCell id="CllLjQD8V5zYTx3tP-4R-10" value="" style="edgeStyle=orthogonalEdgeStyle;rounded=0;orthogonalLoop=1;jettySize=auto;html=1;fontSize=14;" parent="1" source="CllLjQD8V5zYTx3tP-4R-11" target="CllLjQD8V5zYTx3tP-4R-14" edge="1">
                    <mxGeometry relative="1" as="geometry"/>
                </mxCell>
                <mxCell id="CllLjQD8V5zYTx3tP-4R-11" value="&lt;font style=&quot;font-size: 14px&quot;&gt;x = text.length -1&lt;/font&gt;" style="rounded=0;whiteSpace=wrap;html=1;fontSize=19;" parent="1" vertex="1">
                    <mxGeometry x="755" y="620" width="150" height="60" as="geometry"/>
                </mxCell>
                <mxCell id="CllLjQD8V5zYTx3tP-4R-12" value="&lt;font style=&quot;font-size: 11px&quot;&gt;TRUE&lt;/font&gt;" style="edgeStyle=orthogonalEdgeStyle;rounded=0;orthogonalLoop=1;jettySize=auto;html=1;fontSize=14;" parent="1" source="CllLjQD8V5zYTx3tP-4R-14" target="CllLjQD8V5zYTx3tP-4R-16" edge="1">
                    <mxGeometry relative="1" as="geometry"/>
                </mxCell>
                <mxCell id="CllLjQD8V5zYTx3tP-4R-13" value="&lt;font style=&quot;font-size: 13px&quot;&gt;FALSE&lt;/font&gt;" style="edgeStyle=orthogonalEdgeStyle;rounded=0;orthogonalLoop=1;jettySize=auto;html=1;fontSize=14;" parent="1" source="CllLjQD8V5zYTx3tP-4R-14" target="CllLjQD8V5zYTx3tP-4R-20" edge="1">
                    <mxGeometry relative="1" as="geometry"/>
                </mxCell>
                <mxCell id="CllLjQD8V5zYTx3tP-4R-14" value="X &amp;gt;= 0" style="rhombus;whiteSpace=wrap;html=1;fontSize=14;" parent="1" vertex="1">
                    <mxGeometry x="960" y="585" width="140" height="130" as="geometry"/>
                </mxCell>
                <mxCell id="CllLjQD8V5zYTx3tP-4R-15" value="" style="edgeStyle=orthogonalEdgeStyle;rounded=0;orthogonalLoop=1;jettySize=auto;html=1;fontSize=14;" parent="1" source="CllLjQD8V5zYTx3tP-4R-16" target="CllLjQD8V5zYTx3tP-4R-17" edge="1">
                    <mxGeometry relative="1" as="geometry"/>
                </mxCell>
                <mxCell id="CllLjQD8V5zYTx3tP-4R-16" value="Y = Y + text [x]" style="rounded=0;whiteSpace=wrap;html=1;fontSize=14;" parent="1" vertex="1">
                    <mxGeometry x="1160" y="620" width="120" height="60" as="geometry"/>
                </mxCell>
                <mxCell id="CllLjQD8V5zYTx3tP-4R-17" value="X = X -1" style="rounded=0;whiteSpace=wrap;html=1;fontSize=14;" parent="1" vertex="1">
                    <mxGeometry x="1340" y="620" width="120" height="60" as="geometry"/>
                </mxCell>
                <mxCell id="CllLjQD8V5zYTx3tP-4R-18" value="" style="edgeStyle=orthogonalEdgeStyle;rounded=0;orthogonalLoop=1;jettySize=auto;html=1;fontSize=14;" parent="1" source="CllLjQD8V5zYTx3tP-4R-20" target="CllLjQD8V5zYTx3tP-4R-22" edge="1">
                    <mxGeometry relative="1" as="geometry"/>
                </mxCell>
                <mxCell id="CllLjQD8V5zYTx3tP-4R-19" value="" style="edgeStyle=orthogonalEdgeStyle;rounded=0;orthogonalLoop=1;jettySize=auto;html=1;fontSize=14;" parent="1" source="CllLjQD8V5zYTx3tP-4R-20" target="CllLjQD8V5zYTx3tP-4R-24" edge="1">
                    <mxGeometry relative="1" as="geometry"/>
                </mxCell>
                <mxCell id="CllLjQD8V5zYTx3tP-4R-20" value="text == y" style="rhombus;whiteSpace=wrap;html=1;fontSize=14;" parent="1" vertex="1">
                    <mxGeometry x="952.5" y="750" width="155" height="150" as="geometry"/>
                </mxCell>
                <mxCell id="CllLjQD8V5zYTx3tP-4R-21" value="" style="edgeStyle=orthogonalEdgeStyle;rounded=0;orthogonalLoop=1;jettySize=auto;html=1;fontSize=14;" parent="1" source="CllLjQD8V5zYTx3tP-4R-22" target="CllLjQD8V5zYTx3tP-4R-25" edge="1">
                    <mxGeometry relative="1" as="geometry"/>
                </mxCell>
                <mxCell id="CllLjQD8V5zYTx3tP-4R-22" value="PALINDROME" style="rounded=0;whiteSpace=wrap;html=1;fontSize=14;" parent="1" vertex="1">
                    <mxGeometry x="1160" y="795" width="120" height="60" as="geometry"/>
                </mxCell>
                <mxCell id="CllLjQD8V5zYTx3tP-4R-23" value="" style="edgeStyle=orthogonalEdgeStyle;rounded=0;orthogonalLoop=1;jettySize=auto;html=1;fontSize=14;" parent="1" source="CllLjQD8V5zYTx3tP-4R-24" target="CllLjQD8V5zYTx3tP-4R-25" edge="1">
                    <mxGeometry relative="1" as="geometry"/>
                </mxCell>
                <mxCell id="CllLjQD8V5zYTx3tP-4R-24" value="BUKAN PALINDROME" style="rounded=0;whiteSpace=wrap;html=1;fontSize=14;" parent="1" vertex="1">
                    <mxGeometry x="970" y="940" width="120" height="60" as="geometry"/>
                </mxCell>
                <mxCell id="CllLjQD8V5zYTx3tP-4R-25" value="END" style="ellipse;whiteSpace=wrap;html=1;fontSize=14;" parent="1" vertex="1">
                    <mxGeometry x="1160" y="930" width="120" height="80" as="geometry"/>
                </mxCell>
                <mxCell id="CllLjQD8V5zYTx3tP-4R-26" value="&lt;b&gt;&lt;font style=&quot;font-size: 19px&quot;&gt;DETECT PALINDROME&lt;/font&gt;&lt;/b&gt;" style="text;html=1;strokeColor=none;fillColor=none;align=center;verticalAlign=middle;whiteSpace=wrap;rounded=0;fontSize=13;" parent="1" vertex="1">
                    <mxGeometry x="730" y="50" width="270" height="60" as="geometry"/>
                </mxCell>
                <mxCell id="CllLjQD8V5zYTx3tP-4R-27" value="&lt;font style=&quot;font-size: 30px&quot;&gt;M&lt;/font&gt;" style="whiteSpace=wrap;html=1;aspect=fixed;fontSize=30;" parent="1" vertex="1">
                    <mxGeometry x="225" y="630" width="80" height="80" as="geometry"/>
                </mxCell>
                <mxCell id="CllLjQD8V5zYTx3tP-4R-28" value="0" style="text;html=1;align=center;verticalAlign=middle;resizable=0;points=[];autosize=1;strokeColor=none;fillColor=none;fontSize=19;" parent="1" vertex="1">
                    <mxGeometry x="250" y="710" width="30" height="30" as="geometry"/>
                </mxCell>
                <mxCell id="CllLjQD8V5zYTx3tP-4R-29" value="&lt;font style=&quot;font-size: 30px&quot;&gt;A&lt;/font&gt;" style="whiteSpace=wrap;html=1;aspect=fixed;fontSize=30;" parent="1" vertex="1">
                    <mxGeometry x="305" y="630" width="80" height="80" as="geometry"/>
                </mxCell>
                <mxCell id="CllLjQD8V5zYTx3tP-4R-30" value="1" style="text;html=1;align=center;verticalAlign=middle;resizable=0;points=[];autosize=1;strokeColor=none;fillColor=none;fontSize=19;" parent="1" vertex="1">
                    <mxGeometry x="330" y="710" width="30" height="30" as="geometry"/>
                </mxCell>
                <mxCell id="CllLjQD8V5zYTx3tP-4R-31" value="L" style="whiteSpace=wrap;html=1;aspect=fixed;fontSize=30;" parent="1" vertex="1">
                    <mxGeometry x="385" y="630" width="80" height="80" as="geometry"/>
                </mxCell>
                <mxCell id="CllLjQD8V5zYTx3tP-4R-32" value="2" style="text;html=1;align=center;verticalAlign=middle;resizable=0;points=[];autosize=1;strokeColor=none;fillColor=none;fontSize=19;" parent="1" vertex="1">
                    <mxGeometry x="410" y="710" width="30" height="30" as="geometry"/>
                </mxCell>
                <mxCell id="CllLjQD8V5zYTx3tP-4R-33" value="A" style="whiteSpace=wrap;html=1;aspect=fixed;fontSize=30;" parent="1" vertex="1">
                    <mxGeometry x="465" y="630" width="80" height="80" as="geometry"/>
                </mxCell>
                <mxCell id="CllLjQD8V5zYTx3tP-4R-34" value="3" style="text;html=1;align=center;verticalAlign=middle;resizable=0;points=[];autosize=1;strokeColor=none;fillColor=none;fontSize=19;" parent="1" vertex="1">
                    <mxGeometry x="490" y="710" width="30" height="30" as="geometry"/>
                </mxCell>
                <mxCell id="CllLjQD8V5zYTx3tP-4R-35" value="M" style="whiteSpace=wrap;html=1;aspect=fixed;fontSize=30;" parent="1" vertex="1">
                    <mxGeometry x="545" y="630" width="80" height="80" as="geometry"/>
                </mxCell>
                <mxCell id="CllLjQD8V5zYTx3tP-4R-36" value="4" style="text;html=1;align=center;verticalAlign=middle;resizable=0;points=[];autosize=1;strokeColor=none;fillColor=none;fontSize=19;" parent="1" vertex="1">
                    <mxGeometry x="570" y="710" width="30" height="30" as="geometry"/>
                </mxCell>
            </root>
        </mxGraphModel>
    </diagram>
</mxfile>